<?xml version="1.0" encoding="UTF-8"?> <svg xmlns="http://www.w3.org/2000/svg" xmlns:xlink="http://www.w3.org/1999/xlink" id="Layer_1" x="0" y="0" width="327.93" height="442.82" viewBox="0 0 327.93 442.82" xml:space="preserve"> <polygon fill="#098BCB" points="171.82 -5.18 171.8 13.27 174.5 13.27 174.52 -5.18 172.36 -5.18 "></polygon> <path fill="#4BB4DC" d="M179.19 13.9c-0.02-0.44-0.26-5.76 0.63-8.21 0.99-2.7 3.85-5.55 3.96-5.67l1.91 1.92c-0.71 0.71-2.68 2.91-3.33 4.68 -0.59 1.62-0.54 6.05-0.47 7.1L179.19 13.9z"></path> <path fill="#006DA5" d="M167.09 13.89l-2.69-0.18c0.07-1.05 0.13-5.49-0.46-7.1 -0.64-1.77-2.61-3.98-3.31-4.69L162.54 0c0.12 0.12 2.97 2.98 3.95 5.68C167.38 8.13 167.13 13.45 167.09 13.89"></path> <path fill="#098BCB" d="M156.51 38.24l-1.21-6.12 -0.16-0.78 -0.41-1.91c-4.6 1.88-5.53 7.14-5.33 10.14 0.25 3.65 2.76 9.3 8.53 9.31 0 0 1.15-0.89 1.66-1.83 0-0.01 0-0.01 0.01-0.01C158.19 44.42 157.01 40.84 156.51 38.24"></path> <path fill="#098BCB" d="M191.07 31.54v0.02l0.03 0.04 0.01-0.05C191.1 31.54 191.09 31.54 191.07 31.54"></path> <path fill="#098BCB" d="M191.52 29.58c-0.04 0-0.06-0.01-0.09-0.01l-0.12 0.74 -0.19 1.23 -0.01 0.05 -0.06 0.43 -1.02 6.71c-0.51 2.65-1.46 6.1-2.9 8.77 0.04 0.06 0 0 0 0 0.77 0.84 1.53 1.79 1.53 1.79 5.75-0.33 8.48-5.06 8.49-9.46C197.13 36.71 196.41 31.41 191.52 29.58"></path> <path fill="#098BCB" d="M191.04 31.53l0.03 0.03V31.54C191.06 31.53 191.04 31.53 191.04 31.53"></path> <path fill="#C6AC94" d="M190.75 32.35c0 0-13.11-2.75-17.22-17.94 -0.08-0.16-0.46-0.75-0.51-0.86 -0.18 0.81-1.15 5.11-3.94 9.22 -1.12 1.7-2.39 3.17-3.82 4.44 -0.04 0.03-0.08 0.07-0.11 0.1 -0.16 0.14-0.32 0.28-0.49 0.42 -2.41 2.05-5.47 3.82-9.36 4.85l1.21 5.94c0.5 2.52 1.68 6 3.08 8.54 -0.01 0.01-0.01 0.01-0.01 0.01 3.92-3.24 8.05-5.16 13.25-5.16 5.45 0.01 10.18 1.63 14.29 5.59 0 0 0.27-0.23 0.24-0.3 1.43-2.58 2.15-5.63 2.66-8.21l1.02-6.51c-0.02-0.01-0.03-0.01-0.04-0.02L190.75 32.35z"></path> <path fill="#006DA5" d="M165.15 27.31c0.04-0.03 0.08-0.07 0.11-0.1 1.55-1.41 2.81-2.94 3.82-4.44 2.79-4.11 3.76-8.01 3.94-8.82 0.02-0.1 0.03-0.16 0.03-0.16 0.05 0.19 0.1 0.37 0.15 0.56 4.11 15.19 17.76 18.07 17.76 18.07l0.02 0.05 2.47-16.09C172.81 8.56 152 16.74 152 16.74l3.3 15.84c3.89-1.03 6.95-2.8 9.37-4.85C164.83 27.59 164.99 27.45 165.15 27.31"></path> <path fill="#FFFFFF" d="M46.53 320.28c-0.88-0.23-1.77-0.43-2.68-0.59 -2.08-0.38-4.21-0.58-6.4-0.58 -16.78-0.02-30.9 11.63-34.67 27.27l13.21 0.02c3.35-8.58 11.69-14.66 21.46-14.65 9.77 0.01 18.1 6.11 21.43 14.7l13.2 0.02C69.03 333.72 59.14 323.62 46.53 320.28"></path> <path fill="#FFFFFF" d="M215.27 320.47c-0.88-0.23-1.78-0.43-2.69-0.59 -2.08-0.38-4.21-0.58-6.39-0.59 -2.18 0-4.32 0.2-6.39 0.57 -0.91 0.16-1.8 0.36-2.69 0.59 -12.61 3.31-22.52 13.39-25.59 26.11l13.19 0.02c3.35-8.58 11.7-14.66 21.47-14.65 9.77 0.01 18.1 6.11 21.43 14.7l13.2 0.01C237.75 333.91 227.87 323.81 215.27 320.47"></path> <path fill="#FFFFFF" d="M290.55 319.39c-2.19 0-4.31 0.2-6.4 0.57 -0.9 0.17-1.79 0.36-2.68 0.59 -12.61 3.31-22.53 13.39-25.6 26.11l13.21 0.02c3.35-8.58 11.68-14.66 21.45-14.65 9.77 0.01 18.09 6.11 21.42 14.7l13.21 0.02C321.42 331.09 307.33 319.41 290.55 319.39"></path> <path fill="#FFFFFF" d="M130.9 320.38c-0.88-0.23-1.78-0.43-2.68-0.59 -2.08-0.38-4.21-0.58-6.39-0.59 -2.18 0-4.32 0.2-6.39 0.57 -0.9 0.17-1.8 0.36-2.68 0.59 -12.61 3.31-22.52 13.39-25.6 26.11l13.21 0.02c3.35-8.58 11.69-14.66 21.45-14.65 9.77 0.01 18.1 6.11 21.43 14.7l13.21 0.02C153.39 333.81 143.51 323.72 130.9 320.38"></path> <path fill="#16ABE2" d="M37.44 334.44c-8.23-0.01-15.32 4.89-18.52 11.95l37.01 0.04C52.76 339.37 45.67 334.45 37.44 334.44"></path> <path fill="#16ABE2" d="M121.8 334.54c-8.22-0.01-15.32 4.89-18.52 11.95l37.02 0.04C137.12 339.47 130.03 334.55 121.8 334.54"></path> <path fill="#098BCB" d="M97.96 324.8c-3.26-6.85-10.24-11.62-18.31-11.63 -8.08-0.01-15.07 4.74-18.34 11.59 6.73 5.38 11.62 12.98 13.54 21.69l9.51 0.01C86.31 337.75 91.21 330.17 97.96 324.8"></path> <path fill="#098BCB" d="M266.69 325c-3.26-6.85-10.23-11.62-18.31-11.63 -8.07-0.01-15.06 4.74-18.33 11.59 6.73 5.38 11.62 12.98 13.54 21.69l9.51 0.01C255.03 337.94 259.93 330.36 266.69 325"></path> <path fill="#16ABE2" d="M290.53 334.73c-8.23-0.01-15.32 4.9-18.52 11.95l37.01 0.04C305.84 339.66 298.76 334.74 290.53 334.73"></path> <path fill="#098BCB" d="M182.32 324.9c-3.25-6.85-10.23-11.62-18.3-11.63 -8.08-0.01-15.07 4.74-18.34 11.59 6.74 5.38 11.62 12.98 13.55 21.69l9.51 0.01C170.67 337.85 175.58 330.27 182.32 324.9"></path> <path fill="#16ABE2" d="M206.17 334.64c-8.23-0.01-15.33 4.89-18.52 11.94l37.01 0.04C221.48 339.56 214.39 334.65 206.17 334.64"></path> <path fill="#FFFFFF" d="M47.65 317.78c4.14 1.14 8 2.96 11.45 5.33 3.8-7.5 11.56-12.65 20.56-12.64 8.98 0.01 16.74 5.18 20.52 12.69 3.45-2.37 7.33-4.17 11.46-5.31 -5.79-11.82-17.93-20-31.96-20.02C65.63 297.82 53.47 305.97 47.65 317.78"></path> <path fill="#FFFFFF" d="M132.01 317.88c4.15 1.14 8 2.96 11.45 5.33 3.8-7.5 11.56-12.65 20.56-12.64 8.99 0.01 16.74 5.18 20.52 12.69 3.46-2.36 7.32-4.17 11.47-5.3 -5.8-11.82-17.95-20-31.97-20.02C150 297.92 137.83 306.07 132.01 317.88"></path> <path fill="#FFFFFF" d="M216.38 317.97c4.14 1.14 8 2.96 11.45 5.33 3.8-7.5 11.57-12.65 20.55-12.64 8.99 0.01 16.74 5.18 20.52 12.69 3.46-2.37 7.33-4.17 11.47-5.31 -5.8-11.83-17.94-20-31.98-20.02C234.35 298.01 222.19 306.16 216.38 317.97"></path> <path fill="#006DA5" d="M290.55 316.68c-2.56 0-5.06 0.26-7.48 0.74 -4.11-8.79-11.47-15.75-20.52-19.37 -4.38-1.75-9.15-2.71-14.16-2.72 -5-0.01-9.78 0.95-14.16 2.69 -9.06 3.6-16.43 10.55-20.57 19.32 -2.42-0.48-4.92-0.75-7.48-0.75s-5.06 0.26-7.48 0.74c-4.12-8.79-11.47-15.75-20.52-19.37 -4.37-1.74-9.15-2.71-14.15-2.72 -5-0.01-9.78 0.95-14.16 2.69 -9.06 3.6-16.43 10.55-20.57 19.32 -2.42-0.48-4.91-0.75-7.48-0.75 -2.55 0-5.05 0.26-7.48 0.74 -4.11-8.79-11.47-15.75-20.52-19.37 -4.38-1.74-9.15-2.71-14.15-2.72 -5-0.01-9.78 0.95-14.17 2.69 -9.06 3.6-16.43 10.55-20.57 19.32 -2.42-0.48-4.92-0.75-7.48-0.75C19.15 316.37 3.82 329.2 0 346.36l2.78 0c3.78-15.63 17.9-27.28 34.67-27.26 2.19 0 4.32 0.21 6.4 0.59 0.91 0.17 1.8 0.36 2.68 0.59 12.61 3.34 22.5 13.44 25.54 26.17l2.78 0c-1.92-8.71-6.81-16.31-13.54-21.69 3.27-6.85 10.26-11.6 18.34-11.59 8.07 0.01 15.05 4.77 18.31 11.63 -6.75 5.37-11.66 12.95-13.6 21.66l2.78 0c3.08-12.72 12.98-22.8 25.59-26.11 0.89-0.23 1.78-0.42 2.69-0.59 2.08-0.37 4.22-0.57 6.39-0.57 2.19 0 4.32 0.21 6.4 0.59 0.91 0.17 1.8 0.36 2.69 0.59 12.61 3.34 22.5 13.44 25.54 26.17l2.78 0c-1.92-8.71-6.81-16.31-13.55-21.69 3.28-6.85 10.26-11.6 18.34-11.59 8.07 0.01 15.05 4.77 18.31 11.63 -6.74 5.37-11.65 12.95-13.59 21.66l2.78 0c3.07-12.72 12.98-22.8 25.59-26.11 0.88-0.23 1.78-0.42 2.69-0.59 2.08-0.37 4.21-0.57 6.39-0.57s4.32 0.21 6.39 0.59c0.91 0.17 1.81 0.36 2.69 0.59 12.61 3.34 22.49 13.44 25.53 26.17l2.78 0c-1.92-8.71-6.81-16.31-13.54-21.69 3.27-6.85 10.26-11.6 18.33-11.59 8.08 0.01 15.06 4.77 18.32 11.63 -6.75 5.37-11.66 12.95-13.6 21.66l2.78 0c3.07-12.72 12.99-22.8 25.6-26.11 0.89-0.23 1.78-0.42 2.68-0.59 2.09-0.37 4.21-0.57 6.4-0.57 16.78 0.02 30.87 11.7 34.62 27.35l2.77 0C324.16 329.56 308.87 316.7 290.55 316.68M100.17 323.16c-3.77-7.51-11.54-12.68-20.52-12.69 -8.99-0.01-16.76 5.14-20.55 12.64 -3.45-2.38-7.31-4.19-11.45-5.33 5.82-11.81 17.98-19.96 32.02-19.95 14.03 0.02 26.18 8.2 31.97 20.02C107.5 318.99 103.63 320.79 100.17 323.16M184.54 323.26c-3.78-7.51-11.53-12.68-20.52-12.69 -8.99-0.01-16.76 5.14-20.55 12.64 -3.45-2.37-7.3-4.19-11.45-5.33 5.82-11.81 17.99-19.96 32.02-19.95 14.02 0.02 26.18 8.2 31.97 20.02C191.85 319.08 188 320.89 184.54 323.26M268.89 323.35c-3.78-7.51-11.53-12.68-20.52-12.69 -8.98-0.01-16.75 5.14-20.55 12.64 -3.45-2.37-7.31-4.19-11.45-5.33 5.82-11.81 17.98-19.96 32.01-19.95 14.04 0.02 26.18 8.2 31.98 20.02C276.22 319.18 272.35 320.99 268.89 323.35"></path> <path fill="#006DA5" d="M290.53 332.02c-9.77-0.01-18.11 6.07-21.45 14.65l2.93 0c3.2-7.05 10.29-11.95 18.52-11.94 8.23 0.01 15.31 4.93 18.49 11.99l2.94 0C308.62 338.13 300.31 332.04 290.53 332.02"></path> <path fill="#006DA5" d="M206.17 331.93c-9.77-0.01-18.11 6.06-21.47 14.65l2.94 0c3.19-7.05 10.29-11.95 18.52-11.94 8.23 0.01 15.32 4.93 18.49 11.99l2.94 0C224.27 338.03 215.94 331.94 206.17 331.93"></path> <path fill="#006DA5" d="M121.8 331.83c-9.76-0.01-18.11 6.07-21.45 14.65l2.93 0c3.2-7.05 10.3-11.95 18.52-11.94 8.23 0.01 15.32 4.93 18.5 11.99l2.94 0C139.91 337.94 131.58 331.84 121.8 331.83"></path> <path fill="#006DA5" d="M37.44 331.73c-9.76-0.01-18.11 6.07-21.46 14.65l2.93 0c3.2-7.05 10.29-11.95 18.52-11.94 8.23 0.01 15.31 4.93 18.49 11.99l2.94 0C55.54 337.84 47.21 331.75 37.44 331.73"></path> <rect x="259.26" y="72.18" transform="matrix(1 0.0011 -0.0011 1 0.0842 -0.3008)" fill="#16ABE2" width="8.12" height="2.71"></rect> <rect x="259.26" y="77.58" transform="matrix(-1 -0.001 0.001 -1 526.5657 158.1417)" fill="#16ABE2" width="8.12" height="2.71"></rect> <rect x="259.1" y="274.79" transform="matrix(-1 -0.0013 0.0013 -1 525.9553 552.6235)" fill="#16ABE2" width="8.11" height="2.71"></rect> <rect x="259.92" y="83.16" transform="matrix(1 0.0011 -0.0011 1 0.1255 -0.2776)" fill="#006DA5" width="6.95" height="71.53"></rect> <rect x="204.5" y="210" transform="matrix(0.0012 -1 1 0.0012 49.506 476.508)" fill="#006DA5" width="117.56" height="6.95"></rect> <rect x="259.09" y="280.2" transform="matrix(-1 -0.0012 0.0012 -1 525.9528 563.4172)" fill="#16ABE2" width="8.11" height="2.7"></rect> <path fill="#006DA5" d="M280.43 34.67l-2.62-0.64c-0.12 0.46-2.75 11.4-2.76 19.77 0 3.98 0.7 9.02 1.39 13.01l-11.79-0.01 0.06-49.71 -2.69 0 -0.06 49.71 -11.6-0.01c0.7-3.99 1.42-9.02 1.42-13.01 0.01-8.36-2.61-19.31-2.72-19.77l-2.63 0.63c0.03 0.11 2.66 11.1 2.66 19.14 -0.01 7.36-2.67 19.02-2.7 19.14l2.64 0.6c0.04-0.17 0.4-1.74 0.84-4.02l27.09 0.03c0.44 2.29 0.79 3.85 0.83 4.02l2.63-0.59c-0.02-0.12-2.65-11.78-2.64-19.15C277.76 45.77 280.4 34.78 280.43 34.67"></path> <path fill="#C6AC94" d="M271.07 141.89l-17.01-0.02 -0.02 19.55c3.19 3.99 17.8 3.08 17.8 3.08l3.47-17.05L271.07 141.89z"></path> <polygon fill="#C6AC94" points="254.06 146.46 228.71 128.29 215.95 132.35 "></polygon> <polygon fill="#A38B76" points="254.04 159.53 254.06 146.46 215.95 132.35 217.27 148.41 "></polygon> <path fill="#C6AC94" d="M131.81 215.64l-0.28-9.2 1.34-1.1c0.31-0.26 0.5-0.65 0.5-1.06l-0.15-16.23c0-0.47-0.25-0.9-0.65-1.14l-1.74-1.05 3.75-27.59 -11.56-8.26 -3.43-2.74 2.96 41.12 -1.28 1.99c-0.19 0.31-0.26 0.68-0.18 1.03l6.06 26.89c0.05 0.26 0.19 0.5 0.38 0.68l3.55 3.39c0.25 0.25 0.59 0.37 0.93 0.37 0.05 0 0.11 0 0.17-0.01 0.4-0.05 0.76-0.28 0.98-0.62l1.19-1.85c0.31-0.49 0.28-1.12-0.08-1.58L131.81 215.64z"></path> <polygon fill="#006DA5" points="175.44 261.15 194.41 259.65 227.68 273.12 184.76 297.95 "></polygon> <path fill="#098BCB" d="M191.64 61.02l0.15 0.12c-0.01 0.03 0.14 0.1 0.14 0.1l-0.28-0.22C191.64 61.02 191.64 61.02 191.64 61.02"></path> <polygon fill="#098BCB" points="201.95 162.06 209.89 58.57 184.74 161.83 184.78 161.79 160.23 262.38 194.26 259.67 201.89 161.81 "></polygon> <polygon fill="#16ABE2" points="201.94 162.14 201.95 162.06 201.89 161.81 194.26 259.67 194.26 259.71 227.68 273.12 "></polygon> <polygon fill="#16ABE2" points="233.11 126.89 225.2 65.97 210.22 62.64 216 132.33 "></polygon> <polygon fill="#006DA5" points="184.74 161.83 184.73 161.86 154.83 190.95 101.42 305.31 164.37 276.56 160.23 262.38 184.78 161.79 "></polygon> <polygon fill="#006DA5" points="210.22 62.64 209.89 58.57 201.95 162.06 201.94 162.14 227.68 273.12 216 132.33 "></polygon> <path fill="#16ABE2" d="M184.73 161.86l0.01-0.03 25.15-103.26c0 0-27.03 76.98-55.06 132.39L184.73 161.86z"></path> <path fill="#098BCB" d="M191.86 58.02c0 0 0.03 0.17 0.06 0.43 0.02 0.28 0.09 0.54 0.09 0.82 0 0.68 0 1.31-0.08 1.97 0 0-2.71 27.06-18.92 53.35 -10.53 17.85-24.6 30.19-32.18 36.06l14.01 40.3c28.02-55.4 55.06-132.38 55.06-132.38L191.86 58.02z"></path> <polygon fill="#E6E6E6" points="122.32 127.17 163.14 92.51 148.5 91.32 "></polygon> <polygon fill="#E6E6E6" points="106.9 139.45 112.34 141.55 122.3 144.42 122.32 127.17 "></polygon> <path fill="#FFFFFF" d="M173 114.33l-0.02-20.58 -33.8 38.39 -16.88 12.28 5.91 4.75 44.51-34.36C172.82 114.65 172.91 114.49 173 114.33"></path> <path fill="#FFFFFF" d="M172.73 114.81l0.28-0.22v-0.26C172.91 114.49 172.82 114.65 172.73 114.81"></path> <polygon fill="#F2F2F2" points="86.09 126.39 106.9 139.45 110.09 122.55 "></polygon> <polygon fill="#FFFFFF" points="148.49 91.32 110.09 122.55 106.9 139.45 122.32 127.17 "></polygon> <polygon fill="#F2F2F2" points="163.14 92.51 122.32 127.17 122.3 144.42 139.18 132.14 "></polygon> <polygon fill="#FFFFFF" points="148.49 91.32 163.14 92.51 176.06 41.89 166.7 56.15 "></polygon> <path fill="#F2F2F2" d="M191.92 61.24c0 0-0.14-0.07-0.13-0.1l-0.15-0.12 -10.48-8.28 -8.18 41 0.02 20.58v0.27C189.22 88.3 191.92 61.24 191.92 61.24"></path> <path fill="#E6E6E6" d="M172.73 114.81l-44.51 34.36 7.21 5.38c0 0 2.09-1.34 5.4-3.9 7.58-5.87 21.65-18.21 32.18-36.06L172.73 114.81z"></path> <path fill="#006DA5" d="M137.17 91.02c3.97-5.64 7.68-12.11 10.3-17.36 1.41-2.91 2.58-5.56 3.49-7.77 0.99-2.48 1.76-4.66 2.3-6.29l-24.42 3.35 -8.19 44.53c0 0 0.18-0.1 0.49-0.3 2.46-1.91 4.99-4 7.56-6.27C131.21 98.45 134.1 95.24 137.17 91.02"></path> <path fill="#E6E6E6" d="M147.98 72.68c-0.15 0.31-0.34 0.66-0.5 0.98 -2.62 5.25-6.33 11.72-10.3 17.36 -2.67 3.79-5.44 7.19-8.05 9.52 -0.14 0.13-0.28 0.24-0.42 0.37 -2.57 2.28-5.09 4.36-7.55 6.28 -19.6 15.21-35.06 19.21-35.06 19.21l24-3.84 38.4-31.23 18.21-35.17L147.98 72.68z"></path> <path fill="#F2F2F2" d="M173.03 41.66c-5.4-0.01-10.27 2.08-13.72 5.42 -2.62 2.54-4.42 5.81-5.01 9.44l-0.07-0.01c0 0-0.33 1.19-0.96 3.11 -0.53 1.63-1.31 3.81-2.3 6.29 -0.84 2.1-1.83 4.4-2.99 6.79l18.73-16.54 9.36-14.25C175.08 41.74 174.07 41.66 173.03 41.66"></path> <polygon fill="#E5E6E6" points="139.18 132.14 172.98 93.75 181.17 52.74 179.34 48.87 176.06 41.89 163.14 92.51 "></polygon> <path fill="#FFFFFF" d="M191.92 58.45c-0.22-4.24-2.07-8.22-4.98-11.14 -1.16-1.17-2.51-2.19-3.97-3.03 -2.07-1.18-4.41-2.02-6.91-2.39l5.11 10.85 10.48 8.27 0.28 0.22c0.08-0.66 0.09-1.29 0.09-1.97C192.01 58.99 191.94 58.73 191.92 58.45"></path> <polygon fill="#FFFFFF" points="181.17 52.75 176.06 41.89 179.34 48.87 "></polygon> <polygon fill="#006DA5" points="42.52 382.85 42.52 442.82 3.8 391.42 3.8 439.3 0.03 439.3 0.03 380.19 38.75 431.6 38.75 382.85 "></polygon> <polygon fill="#006DA5" points="51.41 439.73 51.41 383.28 83.62 383.28 83.62 387.05 55.17 387.05 55.17 404.61 74.36 404.61 74.36 408.38 55.17 408.38 55.17 435.96 85.59 435.96 85.59 439.73 "></polygon> <path fill="#006DA5" d="M93.72 439.73v-56.45h15.16c2.28 0 4.44 0.46 6.47 1.37 2.03 0.92 3.81 2.14 5.35 3.69 1.54 1.54 2.76 3.36 3.64 5.44 0.89 2.08 1.33 4.32 1.33 6.73 0 2.4-0.44 4.64-1.33 6.72 -0.88 2.08-2.07 3.9-3.55 5.44 -1.49 1.55-3.24 2.76-5.27 3.64 -2.03 0.89-4.19 1.33-6.47 1.33H97.49v22.1H93.72zM97.49 387.05v26.81h11.57c1.77 0 3.43-0.35 4.97-1.07 1.54-0.71 2.9-1.67 4.07-2.87 1.17-1.2 2.1-2.61 2.78-4.24 0.69-1.63 1.03-3.35 1.03-5.18 0-1.88-0.34-3.64-1.03-5.27 -0.69-1.63-1.61-3.05-2.78-4.24 -1.17-1.2-2.54-2.16-4.11-2.87 -1.57-0.71-3.24-1.07-5.01-1.07H97.49z"></path> <polygon fill="#006DA5" points="179.44 383.28 179.44 387.05 157.17 387.05 157.17 439.73 153.4 439.73 153.4 387.05 130.96 387.05 130.96 383.28 "></polygon> <path fill="#006DA5" d="M209.72 440.03c-3.15 0-6.09-0.57-8.83-1.72 -2.74-1.14-5.13-2.69-7.19-4.67 -2.05-1.97-3.68-4.28-4.88-6.94 -1.2-2.65-1.8-5.47-1.8-8.44v-35.29h3.77v35.29c0 2.51 0.48 4.86 1.46 7.02 0.97 2.17 2.31 4.07 4.03 5.7 1.71 1.63 3.72 2.91 6.04 3.85 2.31 0.95 4.78 1.42 7.41 1.42 2.57 0 4.99-0.47 7.28-1.42 2.28-0.94 4.28-2.22 5.99-3.85 1.72-1.63 3.06-3.52 4.03-5.7 0.97-2.16 1.45-4.51 1.45-7.02v-35.29h3.77v35.29c0 2.98-0.6 5.79-1.8 8.44 -1.2 2.66-2.81 4.97-4.84 6.94 -2.02 1.97-4.41 3.52-7.15 4.67C215.71 439.46 212.8 440.03 209.72 440.03"></path> <polygon fill="#006DA5" points="284.57 382.85 284.57 442.82 245.85 391.42 245.85 439.3 242.08 439.3 242.08 380.19 280.8 431.6 280.8 382.85 "></polygon> <polygon fill="#006DA5" points="293.44 439.73 293.44 383.28 325.64 383.28 325.64 387.05 297.2 387.05 297.2 404.61 316.39 404.61 316.39 408.38 297.2 408.38 297.2 435.96 327.61 435.96 327.61 439.73 "></polygon> </svg> 